<?xml version="1.0" encoding="UTF-8"?>
<!-- Generator: Adobe Illustrator 16.2.1, SVG Export Plug-In . SVG Version: 6.00 Build 0)  -->
<!DOCTYPE svg PUBLIC "-//W3C//DTD SVG 1.1//EN" "http://www.w3.org/Graphics/SVG/1.1/DTD/svg11.dtd">
<svg version="1.1" id="Layer_1" xmlns="http://www.w3.org/2000/svg" xmlns:xlink="http://www.w3.org/1999/xlink" x="0px" y="0px" width="24px" height="24px" viewBox="-11.5 12.5 24 24" enable-background="new -11.5 12.5 24 24" xml:space="preserve">
<g id="Layer_1_1_" display="none">
	<g display="inline">
		<path fill="none" d="M128.5-54.5c2.5-8-11.8-18.9-18-25c-23.3-23-54.4-37.2-102-36c-8.7,1.7-17.3,3.3-26,5    c-23.2,7-47.2,21.1-60,39c48.3,20,96.7,40,145,60C87.8-25.8,108.2-40.2,128.5-54.5z M-96.5-47.5c-29.7,102,5.5,158.7,91,187h1    c-6.7-51.7-13.3-103.3-20-155C-48.5-26.2-72.5-36.8-96.5-47.5z M140.5-31.5c-41.3,31-82.7,62-124,93c-6.4,14.7,4.7,59.9,6,79    c72.1-2.9,113.3-54.5,124-120C149.7,0.7,143.1-16.6,140.5-31.5z"/>
	</g>
	<g display="inline">
		<g>
			<path fill="#FFFFFF" d="M21.6,6.2c0.2-0.7-1-1.7-1.6-2.2c-2.1-2-4.8-3.3-9-3.2c-0.8,0.2-1.5,0.3-2.3,0.4C6.6,1.8,4.5,3.1,3.4,4.6     c4.3,1.8,8.6,3.5,12.8,5.3C18,8.7,19.8,7.4,21.6,6.2z M1.7,6.8c-2.6,9,0.5,14.1,8.1,16.6c0,0,0.1,0,0.1,0     C9.2,18.8,8.6,14.2,8,9.6C5.9,8.7,3.8,7.7,1.7,6.8z M22.7,8.2c-3.7,2.7-7.3,5.5-11,8.2c-0.6,1.3,0.4,5.3,0.5,7     c6.4-0.3,10-4.8,11-10.6C23.5,11,22.9,9.5,22.7,8.2z"/>
		</g>
	</g>
</g>
<g id="Layer_2">
	<g>
		<g>
			<path fill="#85BBE7" d="M-11.5,17.5v2h24v-2H-11.5z M-11.5,25.5h24v-2h-24V25.5z M-11.5,31.5h24v-2h-24V31.5z"/>
		</g>
	</g>
</g>
</svg>